<?xml version="1.0" encoding="utf-8"?>
<!-- Generator: Adobe Illustrator 25.2.3, SVG Export Plug-In . SVG Version: 6.00 Build 0)  -->
<svg version="1.1" id="Capa_1" xmlns="http://www.w3.org/2000/svg" xmlns:xlink="http://www.w3.org/1999/xlink" x="0px" y="0px"
	 viewBox="0 0 512 512" style="enable-background:new 0 0 512 512;" xml:space="preserve">
<style type="text/css">
	.st0{fill:#212121;}
</style>
<g>
	<g>
		<path class="st0" d="M0,0v512h512V0H0z M482,482H30V30h452V482z"/>
	</g>
</g>
<g>
	<g>
		<path class="st0" d="M60,60v392h392V60H60z M229.3,352L189,291l-40.6,61h-36l58.8-84l-60.7-86.4h36L189,245l42.2-63.4H267
			L206.2,268l58.8,84H229.3z M390.5,353.7c-23.2,0-21.1-23.5-21.1-23.5c-4.6,8-18.5,24.2-43.7,24.2c-36.9,0-59.8-30.8-59.8-65.3
			c0-39.1,26.3-65,56.2-65c25.3,0,38.3,17,42.5,24.2v-71.5h32.2V315c0,3.4,4.7,9.4,7.4,9.6V352l0,0
			C398.6,353.1,394.1,353.7,390.5,353.7z"/>
	</g>
</g>
<g>
	<g>
		<path class="st0" d="M332.2,251.4c-21.9,0-32.9,21.7-32.9,38.4c0,18.3,13.5,37.2,34.8,37.2c20.2,0,29.4-18.1,30.5-21.1v-30
			C363.3,272.4,351.8,251.4,332.2,251.4z"/>
	</g>
</g>
</svg>
