<?xml version="1.0" encoding="utf-8"?>
<!-- Generator: Adobe Illustrator 25.2.3, SVG Export Plug-In . SVG Version: 6.00 Build 0)  -->
<svg version="1.1" id="Capa_1" xmlns="http://www.w3.org/2000/svg" xmlns:xlink="http://www.w3.org/1999/xlink" x="0px" y="0px"
	 viewBox="0 0 512 512" style="enable-background:new 0 0 512 512;" xml:space="preserve">
<style type="text/css">
	.st0{fill:#212121;}
</style>
<g>
	<g>
		<path class="st0" d="M0,0v512h512V0H0z M482,482H30V30h452V482z"/>
	</g>
</g>
<g>
	<g>
		<polygon class="st0" points="187.5,213.9 163.1,280.8 211.1,280.8 		"/>
	</g>
</g>
<g>
	<g>
		<path class="st0" d="M337.3,247.4c-16.9,0-30.9,12.8-32.4,31.2h65.3C368.2,258.5,353.8,247.4,337.3,247.4z"/>
	</g>
</g>
<g>
	<g>
		<path class="st0" d="M60,60v392h392V60H60z M232.9,352l-15.8-42.5h-59.5L141.9,352h-34.1l65-170.4h29.3L267,352H232.9z
			 M402.6,299.4h-97.2c0.5,5,5.8,31.4,33.4,31.4c17.8,0,27.7-11.9,29.8-17l27.6,7.7c-4.6,9.6-20.4,32.9-58.6,32.9
			c-40.2,0-66.2-29.8-66.2-64.6c0-31.2,21.7-65.8,66.5-65.8c32,0,65.5,21.2,65.5,64.6C403.3,290.7,402.9,298.2,402.6,299.4z"/>
	</g>
</g>
</svg>
