<?xml version="1.0" encoding="utf-8"?>
<!-- Generator: Adobe Illustrator 25.2.3, SVG Export Plug-In . SVG Version: 6.00 Build 0)  -->
<svg version="1.1" id="Capa_1" xmlns="http://www.w3.org/2000/svg" xmlns:xlink="http://www.w3.org/1999/xlink" x="0px" y="0px"
	 viewBox="0 0 32 32" style="enable-background:new 0 0 32 32;" xml:space="preserve">
<style type="text/css">
	.st0{fill:#212121;}
</style>
<path class="st0" d="M26.7,0H5.3C2.4,0,0,2.4,0,5.3v21.3c0,3,2.4,5.4,5.3,5.4h21.3c2.9,0,5.3-2.4,5.3-5.3V5.3C32,2.4,29.6,0,26.7,0z
	 M23.8,22.5c-0.3,0.6-0.7,1.2-1.2,1.6c-0.6,0.5-1.3,0.8-2.1,1.1c-0.9,0.3-1.9,0.4-3.1,0.4H8.7V7h9.1c1.7,0,3,0.4,4,1.1
	c1,0.8,1.5,1.9,1.5,3.5c0,0.9-0.2,1.7-0.7,2.4s-1.1,1.2-2,1.5v0.1c1.1,0.2,2,0.8,2.6,1.6s0.9,1.9,0.9,3.2
	C24.1,21.1,24,21.8,23.8,22.5L23.8,22.5z M20,17.9c-0.5-0.5-1.3-0.7-2.3-0.7H12V23h5.8c1,0,1.8-0.3,2.3-0.8s0.8-1.2,0.8-2.2
	C20.9,19.1,20.6,18.4,20,17.9L20,17.9z M19.2,14.1c0.5-0.4,0.8-1.1,0.8-1.9c0-0.9-0.2-1.6-0.7-2s-1.1-0.6-2-0.6H12v5.2h5.3
	C18.1,14.8,18.7,14.5,19.2,14.1L19.2,14.1z"/>
</svg>
