<?xml version="1.0" encoding="utf-8"?>
<!-- Generator: Adobe Illustrator 25.2.1, SVG Export Plug-In . SVG Version: 6.00 Build 0)  -->
<svg version="1.1" id="bold" xmlns="http://www.w3.org/2000/svg" xmlns:xlink="http://www.w3.org/1999/xlink" x="0px" y="0px"
	 viewBox="0 0 512 512" style="enable-background:new 0 0 512 512;" xml:space="preserve">
<style type="text/css">
	.st0{fill:#14FFEC;}
</style>
<path class="st0" d="M389.3,512H122.7C90.3,512,64,485.7,64,453.3V58.7C64,26.3,90.3,0,122.7,0h266.7C421.7,0,448,26.3,448,58.7
	v394.7C448,485.7,421.7,512,389.3,512z M122.7,32C108,32,96,44,96,58.7v394.7c0,14.7,12,26.7,26.7,26.7h266.7
	c14.7,0,26.7-12,26.7-26.7V58.7C416,44,404,32,389.3,32H122.7z"/>
<path class="st0" d="M346.7,416H165.3c-8.8,0-16-7.2-16-16s7.2-16,16-16h181.3c8.8,0,16,7.2,16,16C362.7,408.8,355.5,416,346.7,416z
	"/>
<path class="st0" d="M346.7,309.3H165.3c-8.8,0-16-7.2-16-16s7.2-16,16-16h181.3c8.8,0,16,7.2,16,16S355.5,309.3,346.7,309.3z"/>
<path class="st0" d="M218.7,213.3h-32c-20.6,0-37.3-16.7-37.3-37.3v-53.3c0-20.6,16.7-37.3,37.3-37.3h32c8.8,0,16,7.2,16,16
	s-7.2,16-16,16h-32c-2.9,0-5.3,2.4-5.3,5.3V176c0,2.9,2.4,5.3,5.3,5.3h32c8.8,0,16,7.2,16,16C234.7,206.2,227.5,213.3,218.7,213.3z"
	/>
<path class="st0" d="M304.6,201.6l-26.7-96c-2.4-8.5,2.6-17.3,11.1-19.7c8.6-2.3,17.3,2.6,19.7,11.1l11.3,40.5L331.2,97
	c2.3-8.5,11.1-13.5,19.7-11.1c8.5,2.4,13.5,11.2,11.1,19.7l-26.7,96C331.1,217.2,308.9,217.2,304.6,201.6z"/>
</svg>
