<?xml version="1.0" encoding="utf-8"?>
<!-- Generator: Adobe Illustrator 25.2.3, SVG Export Plug-In . SVG Version: 6.00 Build 0)  -->
<svg version="1.1" id="Capa_1" xmlns="http://www.w3.org/2000/svg" xmlns:xlink="http://www.w3.org/1999/xlink" x="0px" y="0px"
	 viewBox="0 0 1024 1024" style="enable-background:new 0 0 1024 1024;" xml:space="preserve">
<style type="text/css">
	.st0{fill:#212121;stroke:#212121;stroke-miterlimit:10;}
</style>
<g id="icomoon-ignore">
</g>
<path class="st0" d="M512,512c0-94.3,76.4-170.7,170.7-170.7S853.3,417.7,853.3,512l0,0c0,94.3-76.4,170.7-170.7,170.7
	S512,606.3,512,512L512,512z M170.7,853.3c0-94.3,76.4-170.7,170.7-170.7l0,0H512v170.7c0,94.3-76.4,170.7-170.7,170.7
	S170.7,947.6,170.7,853.3L170.7,853.3L170.7,853.3z M512,0v341.3h170.7c94.3,0,170.7-76.4,170.7-170.7S776.9,0,682.7,0l0,0H512z
	 M170.7,170.7c0,94.3,76.4,170.7,170.7,170.7l0,0H512V0H341.3C247.1,0,170.7,76.4,170.7,170.7L170.7,170.7L170.7,170.7z M170.7,512
	c0,94.3,76.4,170.7,170.7,170.7l0,0H512V341.3H341.3C247.1,341.3,170.7,417.7,170.7,512L170.7,512L170.7,512z"/>
</svg>
