<?xml version="1.0" encoding="utf-8"?>
<!-- Generator: Adobe Illustrator 25.2.3, SVG Export Plug-In . SVG Version: 6.00 Build 0)  -->
<svg version="1.1" id="Capa_1" xmlns="http://www.w3.org/2000/svg" xmlns:xlink="http://www.w3.org/1999/xlink" x="0px" y="0px"
	 viewBox="0 0 32 32" style="enable-background:new 0 0 32 32;" xml:space="preserve">
<style type="text/css">
	.st0{fill:#212121;}
</style>
<path class="st0" d="M31.4,14.6l-14-14c-0.8-0.8-2.1-0.8-2.9,0l-3.2,3.2l2.4,2.4C14.1,6.1,14.5,6,15,6c1.7,0,3,1.3,3,3
	c0,0.5-0.1,0.9-0.3,1.3l4,4c0.4-0.2,0.8-0.3,1.3-0.3c1.7,0,3,1.3,3,3s-1.3,3-3,3s-3-1.3-3-3c0-0.5,0.1-0.9,0.3-1.3l-4-4
	c-0.1,0-0.2,0.1-0.3,0.1v8.3c1.2,0.4,2,1.5,2,2.8c0,1.7-1.3,3-3,3s-3-1.3-3-3c0-1.3,0.8-2.4,2-2.8v-8.3c-1.2-0.4-2-1.5-2-2.8
	c0-0.5,0.1-0.9,0.3-1.3L9.9,5.3l-9.2,9.2c-0.8,0.8-0.8,2.1,0,2.9l14,14c0.8,0.8,2.1,0.8,2.9,0l13.9-13.9
	C32.2,16.7,32.2,15.4,31.4,14.6L31.4,14.6z"/>
</svg>
