<?xml version="1.0" encoding="utf-8"?>
<!-- Generator: Adobe Illustrator 25.2.3, SVG Export Plug-In . SVG Version: 6.00 Build 0)  -->
<svg version="1.1" id="Capa_1" xmlns="http://www.w3.org/2000/svg" xmlns:xlink="http://www.w3.org/1999/xlink" x="0px" y="0px"
	 viewBox="0 0 475.1 475.1" style="enable-background:new 0 0 475.1 475.1;" xml:space="preserve">
<style type="text/css">
	.st0{fill:#212121;}
</style>
<g>
	<g>
		<path class="st0" d="M436.2,146.8c5.1-15.4,7.7-31.4,7.7-48c0-22.1-4.9-42.8-14.6-62.2c-20.4,0-38.3,3.7-54,11.1
			c-15.6,7.4-33.4,18.9-53.4,34.5c-25.1-6.1-51.8-9.1-79.9-9.1c-30.8,0-60.2,3.3-88.2,10c-20.4-16-38.4-27.7-54-35.3
			S66.2,36.5,45.7,36.5C36,56,31.1,76.7,31.1,98.8c0,16.8,2.6,32.9,7.7,48.5C12.9,177.6,0,215.3,0,260.4c0,39.6,5.9,71.1,17.7,94.5
			c6.3,12.4,14.5,23.3,24.6,32.8s21.6,17.2,34.5,23.1s26,10.8,39.1,14.7c13.1,3.9,27.6,6.8,43.5,8.6c15.9,1.8,29.9,3,42.1,3.6
			c12.2,0.6,25.7,0.9,40.5,0.9c17.5,0,33.4-0.4,47.7-1.3c14.3-0.9,30.6-3,49-6.3s34.5-7.9,48.5-13.6s27.4-13.9,40.3-24.6
			c12.8-10.7,22.9-23.3,30.1-38c11.6-23.6,17.4-55.1,17.4-94.5C475.1,215.1,462.1,177.2,436.2,146.8z M402,354.5
			c-6.1,12.5-13.8,22.3-23.1,29.4c-9.3,7.1-20.9,12.8-34.8,17.1c-13.9,4.3-27.2,7.1-40,8.4s-26.9,2-42.5,2h-48
			c-15.6,0-29.8-0.7-42.5-2c-12.8-1.3-26.1-4.1-40-8.4s-25.5-10-34.8-17.1s-17-16.9-23.1-29.4C67,342,64,327.4,64,310.6
			c0-22.8,6.6-42.3,19.7-58.2c13.1-16,30.9-24,53.4-24c8.2,0,26.7,2,55.7,6c13.5,2.1,28.5,3.1,44.8,3.1c16.4,0,31.3-1,44.8-3.1
			c29.3-4,47.9-6,55.7-6c22.5,0,40.3,8,53.4,24s19.7,35.4,19.7,58.2C411.1,327.4,408.1,342,402,354.5z"/>
		<path class="st0" d="M166.9,265.5c-5.8-6.5-12.7-9.7-20.7-9.7s-14.9,3.2-20.7,9.7s-9.9,13.7-12.3,21.7s-3.6,15.8-3.6,23.4
			s1.2,15.4,3.6,23.4s6.5,15.2,12.3,21.7s12.7,9.7,20.7,9.7s14.9-3.2,20.7-9.7s9.9-13.7,12.3-21.7c2.4-8,3.6-15.8,3.6-23.4
			s-1.2-15.4-3.6-23.4C176.8,279.2,172.7,272,166.9,265.5z"/>
		<path class="st0" d="M349.6,265.5c-5.8-6.5-12.7-9.7-20.7-9.7s-14.9,3.2-20.7,9.7c-5.8,6.5-9.9,13.7-12.3,21.7s-3.6,15.8-3.6,23.4
			s1.2,15.4,3.6,23.4s6.5,15.2,12.3,21.7s12.7,9.7,20.7,9.7s14.9-3.2,20.7-9.7c5.8-6.5,9.9-13.7,12.3-21.7s3.6-15.8,3.6-23.4
			s-1.2-15.4-3.6-23.4S355.4,272,349.6,265.5z"/>
	</g>
</g>
</svg>
