<?xml version="1.0" encoding="utf-8"?>
<!-- Generator: Adobe Illustrator 25.2.3, SVG Export Plug-In . SVG Version: 6.00 Build 0)  -->
<svg version="1.1" id="Layer_1" xmlns="http://www.w3.org/2000/svg" xmlns:xlink="http://www.w3.org/1999/xlink" x="0px" y="0px"
	 viewBox="0 0 434.1 434.1" style="enable-background:new 0 0 434.1 434.1;" xml:space="preserve">
<style type="text/css">
	.st0{fill:#212121;}
</style>
<path class="st0" d="M27.3,14.4l28.2,360.5c0.4,5.4,4.1,10,9.3,11.7l148.3,47c2.6,0.8,5.4,0.8,8.1,0l148.3-47
	c5.2-1.6,8.8-6.3,9.3-11.7L407,14.4C407.4,6.6,401.3,0,393.5,0H40.6C32.9,0,26.7,6.6,27.3,14.4z M334.6,126.2H150.9l5.5,51.1h174.1
	L319.2,323l-102.1,32.4L115,323l-5.9-76.1h53.6v37.3l55.9,15l55.6-15l4.3-59.5H107.3L95.9,79.4h242.3L334.6,126.2z"/>
</svg>
