<?xml version="1.0" encoding="utf-8"?>
<!-- Generator: Adobe Illustrator 25.2.3, SVG Export Plug-In . SVG Version: 6.00 Build 0)  -->
<svg version="1.1" id="Capa_1" xmlns="http://www.w3.org/2000/svg" xmlns:xlink="http://www.w3.org/1999/xlink" x="0px" y="0px"
	 viewBox="0 0 32 32" style="enable-background:new 0 0 32 32;" xml:space="preserve">
<style type="text/css">
	.st0{fill:#212121;}
</style>
<path class="st0" d="M0,0h32v32H0V0z M29.4,24.4c-0.2-1.5-1.2-2.7-4-3.8c-1-0.5-2.1-0.8-2.4-1.5c-0.1-0.4-0.1-0.7-0.1-0.9
	c0.2-0.9,1.2-1.1,2-0.9c0.5,0.2,1,0.6,1.3,1.2c1.4-0.9,1.4-0.9,2.3-1.5c-0.4-0.6-0.5-0.8-0.8-1c-0.8-0.9-2-1.4-3.8-1.4L23,14.7
	c-0.9,0.2-1.8,0.7-2.3,1.3c-1.5,1.7-1.1,4.7,0.8,6c1.8,1.4,4.5,1.7,4.8,2.9c0.3,1.6-1.2,2.1-2.6,1.9C22.6,26.6,22,26,21.4,25
	L19,26.3c0.3,0.6,0.6,0.9,1.1,1.5c2.3,2.3,8.1,2.2,9.2-1.3C29.3,26.4,29.5,25.5,29.4,24.4L29.4,24.4z M17.4,14.7h-3
	c0,2.6,0,5.2,0,7.7c0,1.6,0.1,3.2-0.2,3.6c-0.4,0.9-1.6,0.8-2.1,0.6c-0.5-0.3-0.8-0.6-1.1-1.1c-0.1-0.1-0.1-0.3-0.2-0.3l-2.4,1.5
	c0.4,0.8,1,1.6,1.8,2c1.1,0.7,2.7,0.9,4.3,0.5c1-0.3,1.9-0.9,2.4-1.9c0.7-1.2,0.5-2.8,0.5-4.5C17.4,20.3,17.4,17.5,17.4,14.7
	L17.4,14.7z"/>
</svg>
