<?xml version="1.0" encoding="utf-8"?>
<!-- Generator: Adobe Illustrator 25.2.1, SVG Export Plug-In . SVG Version: 6.00 Build 0)  -->
<svg version="1.1" id="Capa_1" xmlns="http://www.w3.org/2000/svg" xmlns:xlink="http://www.w3.org/1999/xlink" x="0px" y="0px"
	 viewBox="0 0 512 512" style="enable-background:new 0 0 512 512;" xml:space="preserve">
<style type="text/css">
	.st0{fill:#14FFEC;}
</style>
<path class="st0" d="M160,423H90V197h70V423z M167,125c0-22.6-18.4-41-41-41c-22.7,0-41,18.4-41,41s18.3,41,41,41
	C148.6,166,167,147.6,167,125z M422,298.7C422,238,409.2,193,338.3,193c-34.1,0-56.9,17-66.2,34.7H272V197h-68v226h68V310.8
	c0-29.4,7.5-57.9,43.9-57.9c35.9,0,37.1,33.6,37.1,59.7V423h69V298.7z M512,452V60c0-33.1-26.9-60-60-60H60C26.9,0,0,26.9,0,60v392
	c0,33.1,26.9,60,60,60h392C485.1,512,512,485.1,512,452z M452,40c11,0,20,9,20,20v392c0,11-9,20-20,20H60c-11,0-20-9-20-20V60
	c0-11,9-20,20-20H452z"/>
</svg>
