<?xml version="1.0" encoding="utf-8"?>
<!-- Generator: Adobe Illustrator 25.2.3, SVG Export Plug-In . SVG Version: 6.00 Build 0)  -->
<svg version="1.1" id="Capa_1" xmlns="http://www.w3.org/2000/svg" xmlns:xlink="http://www.w3.org/1999/xlink" x="0px" y="0px"
	 viewBox="0 0 512 512" style="enable-background:new 0 0 512 512;" xml:space="preserve">
<style type="text/css">
	.st0{fill:#212121;}
</style>
<g>
	<g>
		<path class="st0" d="M0,0v512h512V0H0z M482,482H30V30h452V482z"/>
	</g>
</g>
<g>
	<g>
		<path class="st0" d="M211.2,205.6h-37v55.2h38.4c11.6,0,21.4-10.8,21.4-27.6C234,218.8,225.2,205.6,211.2,205.6z"/>
	</g>
</g>
<g>
	<g>
		<path class="st0" d="M60,60v392h392V60H60z M214.3,294.9H174V352h-33.1V181.6h72.2c33.1,0,54.2,30.4,54.2,56.6
			C267.3,269.2,243.8,294.9,214.3,294.9z M334.8,354.4c-29,0-49.7-13.2-56.9-19.4l12-20.2c7.7,5.4,25.4,16.6,44.2,16.6
			c12.2,0,20.6-5.1,20.6-13.9c0-10.8-17.8-14.3-27.6-17c-8.2-2.2-44.9-7.4-44.9-35c0-26.6,23.2-41.5,49.4-41.5
			c27.6,0,42.3,11.2,49.2,17.3l-13,19.4c-6.4-4.8-20.6-13.9-36.5-13.9c-11.7,0-19.2,5-19.2,14.2c0,11.5,20.1,14.7,24.7,15.8
			c8.6,2.2,48.7,8.4,48.7,37.9C385.7,349.5,350.5,354.4,334.8,354.4z"/>
	</g>
</g>
</svg>
