<?xml version="1.0" encoding="utf-8"?>
<!-- Generator: Adobe Illustrator 25.2.1, SVG Export Plug-In . SVG Version: 6.00 Build 0)  -->
<svg version="1.1" id="Layer_1" xmlns="http://www.w3.org/2000/svg" xmlns:xlink="http://www.w3.org/1999/xlink" x="0px" y="0px"
	 viewBox="0 0 512 512" style="enable-background:new 0 0 512 512;" xml:space="preserve">
<style type="text/css">
	.st0{fill:#0D7377;}
	.st1{fill:#EEEEEE;}
	.st2{fill:#3090FC;}
	.st3{fill:#14FFEC;}
	.st4{fill:#1D1D1B;}
</style>
<path class="st0" d="M497.2,47.8c0.1,3.1,0.2,6.2,0.2,9.2c0,11.7-1.1,23.5-3.2,35l-0.2,0c-17.3-7.3-31.7-20.3-40.6-36.8l-0.1-0.2
	C467.6,50.9,482.4,48.5,497.2,47.8L497.2,47.8z"/>
<path class="st1" d="M373.3,237.6c-3.6,1.4-7.3,2.7-11,3.8l-15.4-14l-13.5-12.3L316.7,200c0.8-3.5,1.7-7,2.6-10.5
	c5.8-20.6,15-40.1,27.2-57.7C372.2,94.6,410,67.5,453.3,55l0.1,0.2c9,16.5,23.3,29.5,40.6,36.8l0.2,0
	c-8.2,44.5-31.8,84.7-66.5,113.6C411.4,219.2,393.1,230,373.3,237.6L373.3,237.6z"/>
<path class="st2" d="M479.1,427.8c2.6,2.6,5.8,4.6,9.3,5.8c-7.1,2.4-12.7,8-15.1,15.1c-2.4-7.1-8-12.8-15.1-15.1
	c7.1-2.4,12.7-8,15.1-15.1C474.5,421.9,476.5,425.1,479.1,427.8z"/>
<path class="st0" d="M433.5,266.2l-35.4,39.4l-22.6-20.8c-13.5-12.5-14.5-33.5-2.3-47.2c19.8-7.6,38.2-18.4,54.4-32l0,0
	c-5.4,9.3-3.6,21.1,4.3,28.3C441.3,242.4,442,256.8,433.5,266.2L433.5,266.2z"/>
<path class="st3" d="M398.1,305.6l35.4-39.4c-6.6,100.7-90.8,180.4-193.8,180.4c-25.4,0-50.5-4.9-73.9-14.5v0
	c103.3-56.7,156.9-141.3,173.8-171.3l0.4-0.5l0.4,0.4l6.6-33.2l15.4,14c3.7-1.2,7.4-2.4,11-3.8c-12.3,13.7-11.3,34.7,2.3,47.2
	L398.1,305.6z"/>
<path class="st3" d="M366.6,107.3c-7.3,7.6-14,15.8-20,24.5c-8.7,6.3-20.6,5.6-28.6-1.6c-9.3-8.5-23.7-7.8-32.1,1.5l-36,39
	l22.9,20.6c13.5,12.1,34.1,11.4,46.7-1.7c-1,3.5-1.9,7-2.6,10.5l16.7,15.2l-33.4,8.7l0.4,0.3c-9.2,12.4-31.6,42.1-59.5,74.5l-5.1-6
	c-0.8-0.9-1.5-1.9-2.2-2.9l-10.1-14c-5.6-7.8-14.5-12.9-24.1-12.6c-1,0-1.9-0.2-2.7-0.7l-20.7-12.3c-6.1-3.6-13.5-3.8-19.8-0.5
	l-10.9,5.8c-9.9,5.3-22.1,2.1-28.2-7.4l-10.6-16.6c-4.9-7.7-4.7-17.5,0.4-25.1c5.5-8.1,15.1-12.4,24.8-11.2l15.9,2
	c5.6,0.8,11.2-1.9,14.2-6.8c5.1-8.7,14.9-13.5,24.9-12.2l6.9,0.9c4.9,0.6,9.8-1.4,12.9-5.3l6.1-7.9c5.5-7.1,5.8-17,0.6-24.3
	l-13.2-18.9c-5.1-7.3-11.6-13.3-19.3-17.8c-2-1.2-3.9-2.5-5.8-3.8l-11.1-8.3l-14.1-10.5C220.2,45.6,306.1,55.5,366.6,107.3z"/>
<path class="st1" d="M300.4,224.2l-0.4-0.3l33.4-8.7l13.5,12.3l-6.6,33.2l-0.4-0.4L300.4,224.2z"/>
<path class="st1" d="M340,260.3l-0.4,0.5c-16.9,30-70.5,114.6-173.8,171.3c-17.9,9.8-36.5,18.4-55.6,25.5c0,0-177.4,54-48.9-127.4
	c-68.2,132.4,56.7,76.9,59.2,75.7l0,0c16.5-8.1,34.3-21.3,52.2-37c23.7-20.9,47.4-46.2,68.1-70.1c28-32.3,50.4-62.1,59.5-74.5
	L340,260.3z"/>
<path class="st0" d="M318,130.1c8,7.2,19.9,7.9,28.6,1.6c-12.2,17.6-21.4,37.1-27.2,57.7c-12.6,13-33.2,13.8-46.7,1.7l-22.9-20.6
	l36-39C294.3,122.3,308.7,121.7,318,130.1z"/>
<path class="st0" d="M235.7,292.7l5.1,6c-20.7,23.9-44.4,49.3-68.1,70.1l-0.7-0.7c-1-3.3-2.6-6.4-4.6-9.1l-22.4-29.2
	c-2-2.6-3.5-5.6-4.4-8.8l-7.4-26.5c-2.7-9.5-10.1-16.8-19.6-19.4l-1.6-0.4c-3.3-0.9-6.3-2.6-8.7-4.9l-13.8-12.9
	c-2.2-2-4.1-4.4-5.6-7c-6.6-11.3-19.6-17.2-32.5-14.7l-2.7,0.5l-2.3-0.2C52.5,168.8,92.8,112,149.6,82.4l14.1,10.5l11.1,8.3
	c1.9,1.4,3.8,2.7,5.8,3.8c7.7,4.4,14.2,10.5,19.3,17.8l13.2,18.9c5.2,7.4,4.9,17.2-0.6,24.3l-6.1,7.9c-3.1,3.9-8,5.9-12.9,5.3
	l-6.9-0.9c-10-1.3-19.8,3.5-24.9,12.2c-3,4.9-8.5,7.5-14.2,6.8l-15.9-2c-9.7-1.3-19.3,3.1-24.8,11.2c-5.1,7.5-5.3,17.4-0.4,25.1
	l10.6,16.6c6,9.4,18.3,12.6,28.2,7.4l10.9-5.8c6.2-3.3,13.7-3.1,19.8,0.5l20.7,12.3c0.8,0.5,1.8,0.8,2.7,0.7
	c9.6-0.2,18.5,4.9,24.1,12.6l10.1,14C234.1,290.8,234.9,291.8,235.7,292.7L235.7,292.7z"/>
<path class="st2" d="M226.6,480.1c2.6,2.6,5.8,4.6,9.3,5.8c-7.1,2.4-12.7,8-15.1,15.1c-2.4-7.1-8-12.7-15.1-15.1
	c7.1-2.4,12.7-8,15.1-15.1C222.1,474.3,224,477.5,226.6,480.1L226.6,480.1z"/>
<path class="st2" d="M177.4,20.4c2.6,2.6,5.8,4.6,9.3,5.8c-7.1,2.4-12.7,8-15.1,15.1c-2.4-7.1-8-12.7-15.1-15.1
	c7.1-2.4,12.7-8,15.1-15.1C172.8,14.5,174.7,17.7,177.4,20.4z"/>
<path class="st3" d="M172,368.1l0.7,0.7c-17.9,15.7-35.7,28.9-52.2,37l0,0c-25.7-19.9-46-46-59-75.8c-10.5-24.2-15.9-50.3-15.9-76.7
	c0-6.1,0.3-12.1,0.8-18l2.3,0.2l2.7-0.5c12.8-2.5,25.9,3.4,32.5,14.7c1.5,2.6,3.4,4.9,5.6,7l13.8,12.9c2.5,2.3,5.5,4,8.7,4.9
	l1.6,0.4c9.5,2.6,16.9,10,19.6,19.4l7.4,26.5c0.9,3.2,2.4,6.2,4.4,8.8l22.4,29.2C169.5,361.8,171,364.8,172,368.1L172,368.1z"/>
<path class="st3" d="M428.2,123.7c9.8,9,10.6,24.2,1.6,34c-9,9.8-24.2,10.6-34,1.6c-9.8-9-10.6-24.2-1.6-34
	C403.1,115.5,418.3,114.7,428.2,123.7z"/>
<path class="st3" d="M322,258.4c0.1,1.3,0,2.6-0.3,3.8c-1.3,5.4-5.7,9.6-11.2,10.5l-17.5,3l1.4-17.8c0.6-7.6,7.2-13.4,14.9-12.8
	C316.2,245.8,321.7,251.4,322,258.4L322,258.4z"/>
<path class="st0" d="M239.7,60.3c-31.4-0.1-62.3,7.5-90.1,22l14.1,10.5l11.1,8.3l2.8,1.2c59.6-31,130.9-29.2,188.9,4.8
	C331.2,76.9,286.2,60.3,239.7,60.3L239.7,60.3z"/>
<path class="st0" d="M177,102.7c-0.7-0.5-1.5-1-2.2-1.5l-11.1-8.3l-14.1-10.5C92.8,112,52.5,168.8,46.4,235.4l2.3,0.2l2.7-0.5
	c8.8-1.7,17.9,0.5,24.9,6C86.4,181,124.6,130.3,177,102.7L177,102.7z"/>
<path class="st0" d="M92.4,337.1c-10.5-24.2-15.9-50.3-15.9-76.7c0-6.1,0.3-12.1,0.8-18l0.5,0c-7.2-6.5-17-9.2-26.5-7.3l-2.7,0.5
	l-2.3-0.2c-0.6,5.9-0.8,11.9-0.8,18c0,26.4,5.4,52.5,15.9,76.7c13,29.8,33.3,55.9,59,75.8l0,0c4.8-2.4,9.5-5,14-7.8
	C116.7,380.6,102.4,360,92.4,337.1L92.4,337.1z"/>
<g>
	<ellipse class="st4" cx="132.4" cy="56.7" rx="6.9" ry="6.9"/>
	<path class="st4" d="M406.2,396.5c-3.8,0-6.9,3.1-6.9,6.9s3.1,6.9,6.9,6.9c3.8,0,6.9-3.1,6.9-6.9
		C413.1,399.5,410,396.5,406.2,396.5z"/>
	<path class="st4" d="M344.5,479.9c-4.4,0-8,3.6-8,8c0,4.4,3.6,8,8,8c4.4,0,8-3.6,8-8c0,0,0,0,0,0
		C352.5,483.5,348.9,479.9,344.5,479.9z"/>
	<circle class="st4" cx="356.6" cy="461.7" r="11"/>
	<path class="st4" d="M40.7,55.3c4.4,0,8-3.6,8-8c0-4.4-3.6-8-8-8c-4.4,0-8,3.6-8,8C32.7,51.7,36.3,55.3,40.7,55.3z"/>
	<path class="st4" d="M52.8,32.1c6.1,0,11-4.9,11-11s-4.9-11-11-11c-6.1,0-11,4.9-11,11C41.8,27.2,46.7,32.1,52.8,32.1z"/>
	<path class="st4" d="M154.6,31.8c5.3,1.8,9.5,6,11.3,11.3c1,3.1,4.4,4.8,7.6,3.8c1.8-0.6,3.2-2,3.8-3.8c1.8-5.3,6-9.5,11.3-11.3
		c3.1-1.1,4.8-4.4,3.8-7.6c-0.6-1.8-2-3.2-3.8-3.8c-5.3-1.8-9.5-6-11.3-11.3c-1-3.1-4.4-4.8-7.6-3.8c-1.8,0.6-3.2,2-3.8,3.8
		c-1.8,5.3-6,9.5-11.3,11.3c-3.1,1.1-4.8,4.4-3.8,7.6C151.4,29.8,152.8,31.2,154.6,31.8z M171.6,22.9c1,1.1,2.1,2.2,3.2,3.2
		c-1.1,1-2.2,2.1-3.2,3.2c-1-1.1-2.1-2.2-3.2-3.2C169.5,25.1,170.6,24.1,171.6,22.9L171.6,22.9z"/>
	<path class="st4" d="M237.9,480.2c-5.3-1.8-9.5-6-11.3-11.3c-1-3.1-4.4-4.8-7.6-3.8c-1.8,0.6-3.2,2-3.8,3.8
		c-1.8,5.3-6,9.5-11.3,11.3c-3.1,1.1-4.8,4.4-3.8,7.6c0.6,1.8,2,3.2,3.8,3.8c5.3,1.8,9.5,6,11.3,11.3c1,3.1,4.4,4.8,7.6,3.8
		c1.8-0.6,3.2-2,3.8-3.8c1.8-5.3,6-9.5,11.3-11.3c3.1-1.1,4.8-4.4,3.8-7.6C241.1,482.2,239.7,480.8,237.9,480.2z M220.9,489.1
		c-1-1.1-2.1-2.2-3.2-3.2c1.1-1,2.2-2.1,3.2-3.2c1,1.1,2.1,2.2,3.2,3.2C222.9,486.9,221.9,487.9,220.9,489.1L220.9,489.1z"/>
	<path class="st4" d="M490.4,427.9c-5.3-1.8-9.5-6-11.3-11.3c-1-3.1-4.4-4.8-7.6-3.8c-1.8,0.6-3.2,2-3.8,3.8
		c-1.8,5.3-6,9.5-11.3,11.3c-3.1,1.1-4.8,4.4-3.8,7.6c0.6,1.8,2,3.2,3.8,3.8c5.3,1.8,9.5,6,11.3,11.3c1,3.1,4.4,4.8,7.6,3.8
		c1.8-0.6,3.2-2,3.8-3.8c1.8-5.3,6-9.5,11.3-11.3c3.1-1.1,4.8-4.4,3.8-7.6C493.6,429.9,492.2,428.5,490.4,427.9z M473.4,436.8
		c-1-1.1-2.1-2.2-3.2-3.2c1.1-1,2.2-2.1,3.2-3.2c1,1.1,2.1,2.2,3.2,3.2C475.4,434.5,474.4,435.6,473.4,436.8L473.4,436.8z"/>
	<path class="st4" d="M496.9,41.8c-44.4,2-86.8,18.8-120.5,47.8c-3.5,3-7,6.2-10.3,9.4c-35.8-29-80.4-44.8-126.5-44.8
		c-110.4,0-200.2,89.3-200.2,199.1c0,26,5.1,51.8,15,75.9C11.8,390.3-1,431,15.4,453.8c9.7,13.4,28,17.4,46.1,17.4
		c24.5,0,48.7-7.2,50.4-7.7c0.1,0,0.2-0.1,0.4-0.1c18.5-7,36.5-15.1,53.9-24.5c72.1,28.3,154,12.6,210.7-40.2
		c36.4-33.9,58.7-80.3,62.5-130c9.3-11.9,7.9-28.9-3.3-39c-5.6-5.1-7-13.3-3.6-20c47.5-40.1,73.6-99.9,70.7-162
		C503.1,44.3,500.3,41.7,496.9,41.8C497,41.8,496.9,41.8,496.9,41.8z M239.7,66.4c43,0,84.6,14.6,118.2,41.5
		c-5.6,6.2-10.7,12.7-15.5,19.5c-6.4,4.1-14.8,3.5-20.4-1.6c-11.7-10.7-29.9-9.8-40.6,1.9l-36,39c-2.2,2.4-2.1,6.2,0.3,8.5
		c0,0,0,0,0.1,0.1l22.9,20.6c7.3,6.5,16.7,10.1,26.5,10.1c5.5,0,11-1.2,16.1-3.4c0.3,0.8,0.8,1.5,1.5,2.1l8.5,7.8l-22.7,5.9
		c-2.1,0.6-3.8,2.2-4.3,4.4v0c-9.3,12.5-28.9,38.4-53.3,67l-0.6-0.7c-0.7-0.8-1.3-1.6-1.9-2.5l-10.1-14
		c-6.9-9.5-17.4-15.1-28.3-15.1c-0.2,0-0.4,0-0.6,0L178.9,245c-7.9-4.7-17.6-4.9-25.6-0.6l-10.9,5.8c-7.1,3.8-15.9,1.5-20.3-5.3
		l-10.6-16.6c-3.6-5.7-3.5-12.9,0.3-18.5c4.2-6.2,11.6-9.6,19.1-8.6l15.9,2c8,1.1,15.9-2.7,20.1-9.7c3.9-6.6,11.3-10.3,18.9-9.3
		l6.9,0.9c7,0.9,14-2,18.4-7.6l6.1-7.9c7.2-9.2,7.5-21.9,0.8-31.4l-13.2-18.9c-5.6-8-12.8-14.6-21.2-19.5c-1.8-1.1-3.6-2.2-5.2-3.5
		l-17.2-12.9C185.8,72.2,212.6,66.3,239.7,66.4L239.7,66.4z M333,142c-8.1,14-14.5,28.8-19,44.3c-10.5,9.8-26.7,9.9-37.4,0.4
		l-18.3-16.5l31.9-34.5c6.2-6.8,16.8-7.3,23.7-1.1c0,0,0,0,0,0C319.2,139.3,326,141.9,333,142L333,142z M312.2,226.9l19.6-5.1
		l8.6,7.8l-3.9,19.4L312.2,226.9z M316,258.7c0.2,4-2.6,7.5-6.5,8.1l-10,1.7l0.8-10.1c0.3-3.2,2.5-6,5.5-6.9
		c0.6-0.2,1.3-0.3,1.9-0.3c0.1,0,0.3,0,0.4,0C312.3,251.2,315.8,254.5,316,258.7L316,258.7z M149.1,89.5l22.1,16.5
		c2,1.5,4.2,2.9,6.4,4.2c6.9,4,12.8,9.5,17.4,16l13.2,18.9c3.7,5.2,3.5,12.2-0.4,17.2l-6.1,7.9c-1.8,2.3-4.6,3.4-7.4,3.1l-6.9-0.9
		c-12.4-1.6-24.5,4.4-30.8,15.1c-1.8,2.8-5,4.3-8.2,3.8l-15.9-2c-12-1.6-23.8,3.8-30.5,13.7c-6.5,9.5-6.7,22-0.5,31.7l10.6,16.6
		c7.7,12,23.4,16.1,36.1,9.4l10.9-5.8c4.4-2.3,9.6-2.2,13.9,0.3l20.7,12.3c1.8,1.1,3.9,1.6,6,1.6c7.2-0.2,14.4,3.6,19.1,10.2
		l10.1,14c0.8,1.1,1.7,2.2,2.6,3.3l1.8,2.1c-3,3.5-6.1,7-9.3,10.5c-17.5,19.4-33.8,36.1-49,49.9c-0.8-1.3-1.6-2.6-2.5-3.7
		l-22.4-29.2c-1.6-2-2.7-4.3-3.4-6.8l-7.4-26.6c-3.2-11.5-12.3-20.4-23.8-23.6l-1.6-0.4c-2.3-0.6-4.5-1.8-6.2-3.5l-13.8-12.9
		c-1.8-1.7-3.3-3.5-4.5-5.6c-7.4-12.5-21.4-19.6-35.8-18C61.1,168.8,97.9,117.6,149.1,89.5L149.1,89.5z M51.5,253.5
		c0-4.1,0.2-8.2,0.4-12.3l0.6-0.1c10.3-2,20.8,2.7,26.2,11.8c1.8,3.1,4,5.9,6.7,8.3l13.8,12.9c3.2,3,7.1,5.1,11.3,6.3l1.6,0.4
		c7.4,2,13.3,7.8,15.4,15.2l7.4,26.6c1.1,3.9,2.9,7.6,5.4,10.9l22.4,29.2c1.1,1.4,2,3,2.7,4.7c-16.2,14-30.9,24.5-44.2,31.4
		C77,363.5,51.4,310,51.5,253.5L51.5,253.5z M61.2,343.9c11.8,23,28,43.5,47.7,60.3c-16.3,6-46.2,14-57.2,2.5
		C42.9,397.7,46.3,375.5,61.2,343.9L61.2,343.9z M108.2,452c-18.3,5.5-68.4,15.2-83.1-5.2c-6.5-9.1-8.4-27.3,10.4-63.8
		c-2,14.4,0.5,25,7.6,32.3c6.7,6.9,16.6,9.3,27.2,9.3c24.4,0,52.4-13,52.8-13.2c29.6-14.5,66.4-46.2,109.4-94.1
		c30.4-33.8,56.1-67.2,68.7-84.1l6.7,6.1c-0.2,0-0.5,0-0.7,0c-10,0.5-18.1,8.3-18.9,18.3l-1.4,17.8c-0.3,3.3,2.2,6.2,5.5,6.4
		c0.5,0,1,0,1.5-0.1l17.6-3c9.9-1.7,17-10.5,16.5-20.5c0-0.2,0-0.5-0.1-0.7l4.3,4C307.1,305,238.4,403,108.2,452L108.2,452z
		 M368.7,389.8C318,437,245.7,452.8,180,431c92.1-54.1,143.2-129.3,163.7-165.3c1.3-0.9,2.3-2.3,2.6-3.8l4.5-22.8l7.5,6.8
		c0.7,0.7,1.6,1.1,2.6,1.4c-5,14.9-0.9,31.3,10.6,42l22.6,20.8c1.1,1,2.6,1.6,4.1,1.6c0.1,0,0.2,0,0.3,0c1.6-0.1,3.1-0.8,4.2-2
		l22.8-25.4C418.7,324.7,398.7,361.8,368.7,389.8L368.7,389.8z M429.1,262.1l-31.4,35l-18.1-16.7c-10.7-9.9-11.9-26.4-2.7-37.7
		c14.8-5.8,28.9-13.4,42-22.6c0.7,7,4,13.6,9.2,18.4C434.9,244.7,435.3,255.3,429.1,262.1L429.1,262.1z M363.7,234.7l-40.4-36.8
		c9.4-38.6,30.7-73.3,60.9-99.1c19.3-16.6,41.9-29.1,66.2-36.7c8.9,14.5,21.7,26.1,36.9,33.5C473.7,160.6,426.7,213.5,363.7,234.7z
		 M489.6,83.2c-10.8-5.9-20.1-14.3-27-24.5c9.5-2.3,19.1-3.8,28.8-4.5C491.5,63.9,490.9,73.6,489.6,83.2z"/>
	<path class="st4" d="M432.2,119.3c-12.3-11.2-31.3-10.3-42.5,2s-10.3,31.3,2,42.5c5.5,5,12.7,7.8,20.2,7.8c0.5,0,1,0,1.4,0
		c16.6-0.8,29.4-14.9,28.6-31.5C441.6,132.1,438.1,124.6,432.2,119.3L432.2,119.3z M425.3,153.7c-6.7,7.4-18.2,7.9-25.5,1.2
		c-7.4-6.7-7.9-18.2-1.2-25.5c6.7-7.4,18.2-7.9,25.5-1.2c3.5,3.2,5.7,7.7,5.9,12.5C430.2,145.5,428.6,150.1,425.3,153.7L425.3,153.7
		z"/>
	<path class="st4" d="M197.1,380.5c-0.9,0.7-1.9,1.5-2.8,2.2c-2.6,2.1-3,5.9-0.9,8.4c2,2.5,5.7,2.9,8.3,1c1-0.8,1.9-1.5,2.9-2.3
		c2.6-2.1,3-5.8,0.9-8.4C203.5,378.9,199.7,378.4,197.1,380.5L197.1,380.5z"/>
	<path class="st4" d="M224.8,356.5c-4.8,4.5-9.8,9-14.8,13.3c-2.5,2.2-2.8,6-0.6,8.5c2.2,2.5,6,2.8,8.5,0.6
		c5.1-4.4,10.2-9,15.2-13.7c2.4-2.3,2.5-6.1,0.2-8.5C231,354.3,227.2,354.2,224.8,356.5L224.8,356.5z"/>
	<path class="st4" d="M273.2,312.5c-2.6-2.1-6.3-1.7-8.4,0.9c0,0,0,0,0,0c-8.7,10.7-18,21.1-27.5,30.8c-2.3,2.4-2.3,6.2,0.1,8.5
		c2.4,2.3,6.2,2.3,8.5-0.1c9.8-10,19.3-20.7,28.2-31.7C276.2,318.3,275.8,314.6,273.2,312.5z"/>
</g>
</svg>
