<?xml version="1.0" encoding="utf-8"?>
<!-- Generator: Adobe Illustrator 25.2.3, SVG Export Plug-In . SVG Version: 6.00 Build 0)  -->
<svg version="1.1" id="Capa_1" xmlns="http://www.w3.org/2000/svg" xmlns:xlink="http://www.w3.org/1999/xlink" x="0px" y="0px"
	 viewBox="0 0 1024 1024" style="enable-background:new 0 0 1024 1024;" xml:space="preserve">
<style type="text/css">
	.st0{fill:#212121;}
</style>
<g id="icomoon-ignore">
</g>
<path class="st0" d="M512,0c282.8,0,512,229.2,512,512s-229.2,512-512,512S0,794.8,0,512S229.2,0,512,0z M410.2,682.6
	c7.5,27.5,6.7,53.2-1,76.5l-2.8,7.7c-1,2.6-2.2,5.1-3.3,7.5c-6,12.4-13.9,23.9-23.7,34.6c-29.8,32.4-71.3,44.7-89.2,34.3
	c-19.2-11.2-9.6-57,24.9-93.4c37.2-39.2,90.5-64.4,90.5-64.4v-0.1L410.2,682.6z M833.1,219.2c-23.1-91-174-120.9-316.7-70.2
	c-84.9,30.2-176.8,77.6-242.9,139.4c-78.6,73.4-91.1,137.4-86,164.2c18.2,94.3,147.5,156,200.7,201.8v0.3
	c-15.7,7.7-130.4,65.2-157.3,124.8c-28.8,62.7,4.5,107.6,26.2,113.3c67.2,18.6,136.3-15.4,173.4-70.4
	c35.8-53.8,32.7-122.9,17.2-156.8c21.2-5.8,46.1-8.3,78.1-4.4c89.6,10.2,107.6,66.6,103.7,89.6c-3.8,23-22.3,36.4-28.8,40.3
	c-6.4,3.9-8.3,5.1-7.7,7.7c0.6,3.8,3.9,3.8,9,3.2c7-1.3,46.8-19.2,48.7-62.8c1.9-55-50.6-116.4-144-115.2
	c-38.4,0.7-62.8,3.9-80,10.9c-1.3-1.9-2.6-3.2-4.5-4.5c-57.6-62.1-164.5-105.6-160-188.2c1.3-30.1,12.2-109.4,204.8-205.4
	c158.1-78.8,284.2-57,306-9c31.3,68.4-67.2,195.8-231.7,214.4c-62.7,7-95.4-17.2-103.7-26.2c-8.9-9.6-10.2-10.2-13.4-8.3
	c-5.1,2.6-1.9,10.9,0,16c5.1,12.8,25,35.2,59.6,46.7c30,9.6,103.7,15.3,192-19.2C775,412.8,852.4,305.9,830,216.3L833.1,219.2z"/>
</svg>
