<?xml version="1.0" encoding="utf-8"?>
<!-- Generator: Adobe Illustrator 25.2.3, SVG Export Plug-In . SVG Version: 6.00 Build 0)  -->
<svg version="1.1" id="Capa_1" xmlns="http://www.w3.org/2000/svg" xmlns:xlink="http://www.w3.org/1999/xlink" x="0px" y="0px"
	 viewBox="0 0 512 512" style="enable-background:new 0 0 512 512;" xml:space="preserve">
<style type="text/css">
	.st0{fill:#212121;}
</style>
<g>
	<path class="st0" d="M421,361h-60.9c-15.5,24.2-36.3,44.7-60.6,60H421v45l91-75l-91-75V361z"/>
	<path class="st0" d="M197.1,421c90.6-0.7,163.9-74.3,163.9-165c0-86.1-65.9-156.7-150-164.2V46l-90,75l90,75v-43.5
		c50.8,7.4,90,50.7,90,103.5c0,57.9-47.1,105-105,105H0v60H197.1C197.2,421,197.2,421,197.1,421z"/>
	<path class="st0" d="M122.7,331C103.2,311.9,91,285.4,91,256c0-34.9,17.3-65.6,43.5-84.7L87.4,132C52.9,162.3,31,206.5,31,256
		c0,27.1,7,52.4,18.5,75H122.7z"/>
</g>
</svg>
