<?xml version="1.0" encoding="utf-8"?>
<!-- Generator: Adobe Illustrator 25.2.3, SVG Export Plug-In . SVG Version: 6.00 Build 0)  -->
<svg version="1.1" id="Capa_1" xmlns="http://www.w3.org/2000/svg" xmlns:xlink="http://www.w3.org/1999/xlink" x="0px" y="0px"
	 viewBox="0 0 512 512" style="enable-background:new 0 0 512 512;" xml:space="preserve">
<style type="text/css">
	.st0{fill:#212121;}
</style>
<g>
	<path class="st0" d="M15,114.2c8.3,0,15-6.7,15-15V30h69.2c8.3,0,15-6.7,15-15s-6.7-15-15-15H15C6.7,0,0,6.7,0,15v84.2
		C0,107.5,6.7,114.2,15,114.2z"/>
	<path class="st0" d="M497,0h-84.2c-8.3,0-15,6.7-15,15s6.7,15,15,15H482v69.2c0,8.3,6.7,15,15,15s15-6.7,15-15V15
		C512,6.7,505.3,0,497,0z"/>
	<path class="st0" d="M497,397.8c-8.3,0-15,6.7-15,15V482h-69.2c-8.3,0-15,6.7-15,15s6.7,15,15,15H497c8.3,0,15-6.7,15-15v-84.2
		C512,404.5,505.3,397.8,497,397.8z"/>
	<path class="st0" d="M99.2,482H30v-69.2c0-8.3-6.7-15-15-15s-15,6.7-15,15V497c0,8.3,6.7,15,15,15h84.2c8.3,0,15-6.7,15-15
		S107.5,482,99.2,482z"/>
	<path class="st0" d="M419.7,191.4V96.7c0-4.7-3.8-8.5-8.5-8.5H256H100.9c-4.7,0-8.5,3.8-8.5,8.5v94.7c0,4.7,3.8,8.5,8.5,8.5h45.2
		c4.7,0,8.5-3.8,8.5-8.5V159c0-4.7,3.8-8.5,8.5-8.5h53.2c4.7,0,8.5,3.8,8.5,8.5v234.1c0,4.7-3.8,8.5-8.5,8.5H193
		c-4.7,0-8.5,3.8-8.5,8.5v45.2c0,4.7,3.8,8.5,8.5,8.5h63h62.9c4.7,0,8.5-3.8,8.5-8.5v-45.2c0-4.7-3.8-8.5-8.5-8.5h-23.3
		c-4.7,0-8.5-3.8-8.5-8.5V158.9c0-4.7,3.8-8.5,8.5-8.5h53.2c4.7,0,8.5,3.8,8.5,8.5v32.4c0,4.7,3.8,8.5,8.5,8.5H411
		C415.8,199.9,419.7,196.1,419.7,191.4L419.7,191.4z"/>
</g>
<path class="st0" d="M500.8,316.2l-43.2-25.7c1.7-5.4-0.4-11.5-5.5-14.5l-15.9-9.5c-2.9-1.7-6.2-2.2-9.5-1.4c-2,0.5-3.8,1.5-5.3,2.8
	c-3.5-3-6.2-6.8-7.6-11.2l-2.7-8c-5.2-15.4-19.7-25.7-35.9-25.9L281,225c-0.1,0.1-0.2,0.2-0.3,0.3c0.3,1.3,0.6,2.5,1,3.8
	c2.4,9.5,6.9,17.2,11.6,25.7c5.4,9.7,10.8,19.4,16.1,29.1c4.7,8.6,9.5,17.1,14.2,25.7c7.9,14.2,23.9,21.9,39.9,19.1l8.3-1.4
	c4.6-0.8,9.2-0.3,13.5,1.4c-0.5,2-0.5,4,0,6c0.8,3.2,2.9,6,5.7,7.7l16,9.6c3,1.8,6.4,2.2,9.5,1.4c2.2-0.6,4.3-1.7,5.9-3.4l43.1,25.7
	c2.6,1.5,5.6,2,8.5,1.2c2.9-0.7,5.3-2.6,6.9-5.1l23.8-40.1C507.9,326.2,506.1,319.4,500.8,316.2z M369.3,312.7l-8.3,1.4
	c-9.7,1.7-19.4-3-24.2-11.6l-28.8-52l31.4,18.6c-2.3,10.2,2,21.1,11.4,26.7c5.8,3.5,12.6,4.2,18.7,2.7c6.1-1.6,11.6-5.5,15.1-11.3
	c6.9-11.7,3.1-26.9-8.6-33.8c-9.4-5.6-21.1-4.2-29,2.8l-31.4-18.6L375,238c9.8,0.1,18.6,6.4,21.8,15.7l2.7,8
	c2.6,7.6,7.4,14.2,13.7,19l-20.7,34.8C385.3,312.3,377.2,311.3,369.3,312.7z M355.1,269.8c1.4-2.3,3.5-3.8,5.9-4.4s5-0.3,7.3,1
	c4.6,2.7,6.1,8.6,3.4,13.2s-8.6,6.1-13.2,3.4C353.9,280.3,352.4,274.4,355.1,269.8z M412.6,337.8l-11.6-6.9l29.7-50.1l11.6,6.9
	l-1.1,1.8l0,0l-14.6,24.6L412.6,337.8z M470,360.7l-39.6-23.5l13.7-23.2l6.1-10.4l39.6,23.5L470,360.7z"/>
</svg>
