<?xml version="1.0" encoding="utf-8"?>
<!-- Generator: Adobe Illustrator 25.2.3, SVG Export Plug-In . SVG Version: 6.00 Build 0)  -->
<svg version="1.1" id="Capa_1" xmlns="http://www.w3.org/2000/svg" xmlns:xlink="http://www.w3.org/1999/xlink" x="0px" y="0px"
	 viewBox="0 0 512 512" style="enable-background:new 0 0 512 512;" xml:space="preserve">
<style type="text/css">
	.st0{fill:#212121;}
</style>
<path class="st0" d="M448,0H64C28.7,0,0,28.7,0,64v384c0,35.3,28.7,64,64,64h384c35.3,0,64-28.7,64-64V64C512,28.7,483.3,0,448,0z
	 M222.7,387.8c0,17-13.8,30.7-30.7,30.7H97.3c-17,0-30.7-13.8-30.7-30.7V97.3c0-17,13.8-30.7,30.7-30.7H192
	c17,0,30.7,13.8,30.7,30.7V387.8z M445.4,259.8c0,16.9-13.8,30.7-30.7,30.7H320c-17,0-30.7-13.8-30.7-30.7V97.3
	c0-17,13.8-30.7,30.7-30.7h94.7c17,0,30.7,13.8,30.7,30.7L445.4,259.8L445.4,259.8z"/>
</svg>
