<?xml version="1.0" encoding="utf-8"?>
<!-- Generator: Adobe Illustrator 25.2.3, SVG Export Plug-In . SVG Version: 6.00 Build 0)  -->
<svg version="1.1" id="Capa_1" xmlns="http://www.w3.org/2000/svg" xmlns:xlink="http://www.w3.org/1999/xlink" x="0px" y="0px"
	 viewBox="0 0 124 124" style="enable-background:new 0 0 124 124;" xml:space="preserve">
<g>
	<path d="M112,6H12C5.4,6,0,11.4,0,18s5.4,12,12,12h100c6.6,0,12-5.4,12-12S118.6,6,112,6z"/>
	<path d="M102,50H22c-5.3,0-9.6,5.4-9.6,12s4.3,12,9.6,12h80c5.3,0,9.6-5.4,9.6-12S107.3,50,102,50z"/>
	<path d="M93,92.8H31c-4.1,0-7.4,5.4-7.4,12s3.4,12,7.4,12H93c4.1,0,7.4-5.4,7.4-12S97.1,92.8,93,92.8z"/>
</g>
</svg>
