<?xml version="1.0" encoding="utf-8"?>
<!-- Generator: Adobe Illustrator 25.2.3, SVG Export Plug-In . SVG Version: 6.00 Build 0)  -->
<svg version="1.1" id="Capa_1" xmlns="http://www.w3.org/2000/svg" xmlns:xlink="http://www.w3.org/1999/xlink" x="0px" y="0px"
	 viewBox="0 0 512 512" style="enable-background:new 0 0 512 512;" xml:space="preserve">
<style type="text/css">
	.st0{fill:#212121;}
	.st1{font-family:'ArialMT';}
	.st2{font-size:101.5349px;}
	.st3{font-size:198.6803px;}
</style>
<ellipse class="st0" cx="260.1" cy="35.8" rx="10.1" ry="10.1"/>
<path class="st0" d="M287.3,43.3h39.4c4.1,0,7.5-3.4,7.5-7.5s-3.4-7.5-7.5-7.5h-39.4c-4.1,0-7.5,3.4-7.5,7.5S283.2,43.3,287.3,43.3z
	"/>
<path class="st0" d="M117.3,172.2c-2.5,0-4.5,2-4.5,4.5V225c0,9.1,7.4,16.6,16.6,16.6h12.1c9.1,0,16.6-7.4,16.6-16.6v-48.3
	c0-2.5-2-4.5-4.5-4.5s-4.5,2-4.5,4.5V225c0,4.2-3.4,7.6-7.6,7.6h-12.1c-4.2,0-7.6-3.4-7.6-7.6v-48.3
	C121.8,174.2,119.8,172.2,117.3,172.2z"/>
<path class="st0" d="M166,240c0.7,0.4,1.5,0.6,2.2,0.6c1.5,0,2.9-0.8,3.7-2.1l13.9-23.1l13.9,23.1c0.8,1.4,2.3,2.1,3.7,2.1
	c0.8,0,1.5-0.2,2.2-0.6c2.1-1.2,2.7-3.9,1.5-6L191,206.8l16.3-27.1c1.2-2.1,0.6-4.7-1.5-6c-2.1-1.2-4.7-0.6-6,1.5l-13.9,23.1
	L172,175.2c-1.2-2.1-3.9-2.7-6-1.5s-2.7,3.9-1.5,6l16.3,27.1L164.5,234C163.3,236,163.9,238.7,166,240L166,240z"/>
<path class="st0" d="M193.4,374.8c-4.1,0-7.5,3.4-7.5,7.5v40.4c0,4.1,3.4,7.5,7.5,7.5h40.4c4.1,0,7.5-3.4,7.5-7.5v-40.4
	c0-4.1-3.4-7.5-7.5-7.5H193.4z M226.3,415.2h-25.4v-25.4h25.4V415.2z"/>
<path class="st0" d="M308.5,374.8h-40.4c-4.1,0-7.5,3.4-7.5,7.5v40.4c0,4.1,3.4,7.5,7.5,7.5h40.4c4.1,0,7.5-3.4,7.5-7.5v-40.4
	C316,378.1,312.7,374.8,308.5,374.8z M301,415.2h-25.4v-25.4H301V415.2z"/>
<path class="st0" d="M342.9,374.8c-4.1,0-7.5,3.4-7.5,7.5v40.4c0,4.1,3.4,7.5,7.5,7.5h40.4c4.1,0,7.5-3.4,7.5-7.5v-40.4
	c0-4.1-3.4-7.5-7.5-7.5H342.9z M375.8,415.2h-25.4v-25.4h25.4V415.2z"/>
<path class="st0" d="M437.2,465.9c0-0.9-0.1-1.8-0.3-2.7V77.7c0-5-3.4-9.1-7.5-9.1s-7.5,4.1-7.5,9.1v379.1H154.1V333.7
	c0-5-3.4-9.1-7.5-9.1s-7.5,4.1-7.5,9.1v169.2c0,5,3.4,9.1,7.5,9.1h282.8c4.1,0,7.5-4.1,7.5-9.1v-34.3
	C437.1,467.7,437.2,466.9,437.2,465.9z M154.1,493.7V475h267.8v18.7H154.1z"/>
<path class="st0" d="M139.1,330.4c0,4.1,3.4,7.5,7.5,7.5s7.5-3.4,7.5-7.5v-36.6H261l48.3,48.3c1.4,1.4,3.4,2.2,5.3,2.2
	c1,0,1.9-0.2,2.9-0.6c2.8-1.2,4.6-3.9,4.6-6.9v-43h2.6c15.3,0,27.7-12.4,27.7-27.7V144.9c0-15.3-12.4-27.7-27.7-27.7h-93.2
	c-4.1,0-7.5,3.4-7.5,7.5c0,4.1,3.4,7.5,7.5,7.5h93.2c7,0,12.7,5.7,12.7,12.7v121.2c0,7-5.7,12.7-12.7,12.7h-10.1
	c-4.1,0-7.5,3.4-7.5,7.5v32.4L269.4,281c-1.4-1.4-3.3-2.2-5.3-2.2H146.7h-0.1h-0.1h-44c-7,0-12.7-5.7-12.7-12.7V144.9
	c0-7,5.7-12.7,12.7-12.7h94.1c4.1,0,7.5-3.4,7.5-7.5s-3.4-7.5-7.5-7.5h-42.5V45.3h57.8l7.3,16.1c4.5,9.9,14.4,16.2,25.2,16.2h87.1
	c10.8,0,20.7-6.4,25.2-16.2l7.3-16.1h57.8v75.2c0,4.1,3.4,7.5,7.5,7.5s7.5-3.4,7.5-7.5V7.5c0-4.1-3.4-7.5-7.5-7.5H146.6
	c-4.1,0-7.5,3.4-7.5,7.5v109.7h-36.6c-15.3,0-27.7,12.4-27.7,27.7v121.2c0,15.3,12.4,27.7,27.7,27.7h36.6V330.4z M421.9,15v15.3
	h-62.7c-2.9,0-5.6,1.7-6.8,4.4l-9.3,20.5c-2.1,4.5-6.6,7.4-11.6,7.4h-87.1c-5,0-9.5-2.9-11.6-7.4l-9.3-20.5
	c-1.2-2.7-3.9-4.4-6.8-4.4H154V15H421.9z"/>
<path class="st0" d="M257.5,172.2c-2.5,0-4.5,2-4.5,4.5V225c0,9.1,7.4,16.6,16.6,16.6h12.1c9.1,0,16.6-7.4,16.6-16.6v-48.3
	c0-2.5-2-4.5-4.5-4.5s-4.5,2-4.5,4.5V225c0,4.2-3.4,7.6-7.6,7.6h-12.1c-4.2,0-7.6-3.4-7.6-7.6v-48.3
	C262,174.2,260,172.2,257.5,172.2z"/>
<text transform="matrix(1.0217 0 0 1 301.0283 242.0649)" class="st0 st1 st2">I</text>
<text transform="matrix(0.3099 0 0 1 213.5732 190.2109)" class="st0 st1 st3">_</text>
</svg>
