<?xml version="1.0" encoding="utf-8"?>
<!-- Generator: Adobe Illustrator 25.2.3, SVG Export Plug-In . SVG Version: 6.00 Build 0)  -->
<svg version="1.1" id="Capa_1" xmlns="http://www.w3.org/2000/svg" xmlns:xlink="http://www.w3.org/1999/xlink" x="0px" y="0px"
	 viewBox="0 0 1024 1024" style="enable-background:new 0 0 1024 1024;" xml:space="preserve">
<style type="text/css">
	.st0{fill:#212121;}
</style>
<g id="icomoon-ignore">
</g>
<path class="st0" d="M987.7,110.4L777,9c-8.1-4-17.6-6.3-27.7-6.3c-17.6,0-33.6,7.1-45.1,18.7l0,0L300.6,389.5L124.8,256.1
	c-7.1-5.4-16-8.7-25.8-8.7c-11.1,0-21.1,4.2-28.7,11.1L14,309.8c-8.6,7.8-14,19.1-14,31.6s5.4,23.7,13.9,31.5l0,0L166.4,512
	L13.9,651.1C5.3,658.9,0,670.1,0,682.6s5.4,23.7,13.9,31.5l0,0l56.4,51.2c7.5,6.9,17.6,11.1,28.7,11.1c9.7,0,18.7-3.3,25.9-8.7
	l-0.1,0.1l175.8-133.5l403.6,368.2c11.5,11.5,27.5,18.7,45.1,18.7c10.1,0,19.6-2.3,28-6.5l-0.4,0.2l210.9-101.4
	c21.6-10.6,36.2-32.4,36.2-57.6l0,0l0,0V168.1l0,0c0-25.3-14.6-47.1-35.9-57.5L987.7,110.4L987.7,110.4z M768.2,744.4L461.9,512
	l306.3-232.4L768.2,744.4L768.2,744.4z"/>
</svg>
